{"title":"Captain America Winter Soldier 2014 480p WEBRip TS Audio x264 Pi","uid":10166886,"size":1086822025,"categoryP":"video","categoryS":"movies","magnet":"?xt=urn:btih:0fec895869e16580b65ac1c307757c049f5d9670&amp;dn=Captain+America+Winter+Soldier+2014+480p+WEBRip+TS+Audio+x264+Pi&amp;tr=udp%3A%2F%2Ftracker.openbittorrent.com%3A80&amp;tr=udp%3A%2F%2Fopen.demonii.com%3A1337&amp;tr=udp%3A%2F%2Ftracker.coppersurfer.tk%3A6969&amp;tr=udp%3A%2F%2Fexodus.desync.com%3A6969","seeders":4,"leechers":0,"uploader":"shawnmurthy","files":-1,"time":1400350893,"description":"TS IS CAM AUDIO BETTER WITHOUT THE ECHO AND PEOPLE TALKING IF YOU DO NOT LIKE IT DO NOT DOWNLOAD IT...I DO NOT WANNA HER &quot;OMG I WASTED MY BANDWITH AND DOWNLOADED IT&quot; WELL I AM GOING TO SAY IS BETTER READ INFO NEXT TIME NOT MY FAULT.\n\n[URL=http://istoreimg.com/i/5338b4c61e57f.html][IMG]http://istoreimg.com/upload/small/2014/03/31/5338b4c61e548.jpg[/IMG][/URL]\n\n THIS IS WEBRIP BUT AUDIO IS TS MEANING IT IS CAM BUT BETTER SUCH AS TELESYNC IF YOU THINK IM LYING DO NOT DOWNLOD SIMPLE AS THAT..IF YOU CAN ENCODE BETTER I WANNA SEE IT ....ENJOY...ENJOY \n\nSCREEN SHOTS\n &lt;a href=&quot;\nhttp://pimp4003.net/torrents.php?id=0fec895869e16580b65ac1c307757c049f5d9670&quot; rel=&quot;nofollow&quot; target=&quot;_NEW&quot;&gt;\nhttp://pimp4003.net/torrents.php?id=0fec895869e16580b65ac1c307757c049f5d9670&lt;/a&gt;\n\nCaptain America Winter Soldier 2014 480p WEBRip TS Audio x264 Pimp4003\n &lt;a href=&quot;\nhttp://www.imdb.com/title/tt1843866/&quot; rel=&quot;nofollow&quot; target=&quot;_NEW&quot;&gt;\nhttp://www.imdb.com/title/tt1843866/&lt;/a&gt;\n\nSteve Rogers struggles to embrace his role in the modern world and battles a new threat from old history: the Soviet agent known as the Winter Soldier.\n\nDirectors: Anthony Russo, Joe Russo, 1 more credit Â»\nWriters: Christopher Markus (screenplay), Stephen McFeely (screenplay), 3 more credits Â»\nStars: Chris Evans, Frank Grillo, Sebastian Stan | See full cast and crew Â»\n\nVideo\nID                                       : 2\nFormat                                   : AVC\nFormat/Info                              : Advanced Video Codec\nFormat profile                           : &lt;a class=&quot;__cf_email__&quot; href=&quot;/cdn-cgi/l/email-protection&quot; data-cfemail=&quot;a3e1c2d0c6cfcacdc6e3ef908d93&quot;&gt;[email&amp;#160;protected]&lt;/a&gt;&lt;script cf-hash='f9e31' type=&quot;text/javascript&quot;&gt;\n/* &lt;![CDATA[ */!function(){try{var t=&quot;currentScript&quot;in document?document.currentScript:function(){for(var t=document.getElementsByTagName(&quot;script&quot;),e=t.length;e--;)if(t[e].getAttribute(&quot;cf-hash&quot;))return t[e]}();if(t&amp;&amp;t.previousSibling){var e,r,n,i,c=t.previousSibling,a=c.getAttribute(&quot;data-cfemail&quot;);if(a){for(e=&quot;&quot;,r=parseInt(a.substr(0,2),16),n=2;a.length-n;n+=2)i=parseInt(a.substr(n,2),16)^r,e+=String.fromCharCode(i);e=document.createTextNode(e),c.parentNode.replaceChild(e,c)}}}catch(u){}}();/* ]]&gt; */&lt;/script&gt;\nFormat settings, CABAC                   : No\nFormat settings, ReFrames                : 1 frame\nFormat settings, GOP                     : M=1, N=25\nMuxing mode                              : Container profile=&lt;a class=&quot;__cf_email__&quot; href=&quot;/cdn-cgi/l/email-protection&quot; data-cfemail=&quot;12507361777e7b7c7752263c23&quot;&gt;[email&amp;#160;protected]&lt;/a&gt;&lt;script cf-hash='f9e31' type=&quot;text/javascript&quot;&gt;\n/* &lt;![CDATA[ */!function(){try{var t=&quot;currentScript&quot;in document?document.currentScript:function(){for(var t=document.getElementsByTagName(&quot;script&quot;),e=t.length;e--;)if(t[e].getAttribute(&quot;cf-hash&quot;))return t[e]}();if(t&amp;&amp;t.previousSibling){var e,r,n,i,c=t.previousSibling,a=c.getAttribute(&quot;data-cfemail&quot;);if(a){for(e=&quot;&quot;,r=parseInt(a.substr(0,2),16),n=2;a.length-n;n+=2)i=parseInt(a.substr(n,2),16)^r,e+=String.fromCharCode(i);e=document.createTextNode(e),c.parentNode.replaceChild(e,c)}}}catch(u){}}();/* ]]&gt; */&lt;/script&gt;\nCodec ID                                 : avc1\nCodec ID/Info                            : Advanced Video Coding\nDuration                                 : 2h 15mn\nBit rate                                 : 934 Kbps\nWidth                                    : 856 pixels\nHeight                                   : 480 pixels\nDisplay aspect ratio                     : 16:9\nFrame rate mode                          : Constant\nFrame rate                               : 29.970 fps\nOriginal frame rate                      : 29.000 fps\nColor space                              : YUV\nChroma subsampling                       : 4:2:0\nBit depth                                : 8 bits\nScan type                                : Progressive\nBits/(Pixel*Frame)                       : 0.076\nStream size                              : 907 MiB (88%)\nWriting library                          : ointer\nLanguage                                 : English\n\nAudio\nID                                       : 1\nFormat                                   : AAC\nFormat/Info                              : Advanced Audio Codec\nFormat profile                           : LC\nCodec ID                                 : 40\nDuration                                 : 2h 15mn\nBit rate mode                            : Constant\nBit rate                                 : 128 Kbps\nChannel(s)                               : 2 channels\nChannel positions                        : Front: L R\nSampling rate                            : 48.0 KHz\nCompression mode                         : Lossy\nStream size                              : 124 MiB (12%)\nLanguage                                 : English\n ","torrent":{"xt":"urn:btih:0fec895869e16580b65ac1c307757c049f5d9670","amp;dn":"Captain+America+Winter+Soldier+2014+480p+WEBRip+TS+Audio+x264+Pi","amp;tr":["udp%3A%2F%2Ftracker.openbittorrent.com%3A80","udp%3A%2F%2Fopen.demonii.com%3A1337","udp%3A%2F%2Ftracker.coppersurfer.tk%3A6969","udp%3A%2F%2Fexodus.desync.com%3A6969"],"infoHash":"0fec895869e16580b65ac1c307757c049f5d9670","infoHashBuffer":{"type":"Buffer","data":[15,236,137,88,105,225,101,128,182,90,193,195,7,117,124,4,159,93,150,112]},"announce":[],"urlList":[]}}